<mxfile host="65bd71144e">
    <diagram id="aV4gu7ywYpkOvxbK-ieb" name="Page-1">
        <mxGraphModel dx="2660" dy="1298" grid="1" gridSize="10" guides="1" tooltips="1" connect="1" arrows="1" fold="1" page="1" pageScale="1" pageWidth="850" pageHeight="1100" math="0" shadow="0">
            <root>
                <mxCell id="0"/>
                <mxCell id="1" parent="0"/>
                <mxCell id="26" style="edgeStyle=none;html=1;entryX=0.5;entryY=0;entryDx=0;entryDy=0;dashed=1;endArrow=none;endFill=0;" edge="1" parent="1" source="2" target="25">
                    <mxGeometry relative="1" as="geometry"/>
                </mxCell>
                <mxCell id="2" value="Voluntario" style="shape=umlActor;verticalLabelPosition=bottom;verticalAlign=top;html=1;outlineConnect=0;" vertex="1" parent="1">
                    <mxGeometry x="40" y="150" width="30" height="60" as="geometry"/>
                </mxCell>
                <mxCell id="29" style="edgeStyle=none;html=1;entryX=1;entryY=1;entryDx=0;entryDy=0;dashed=1;endArrow=classic;endFill=0;" edge="1" parent="1" source="4" target="25">
                    <mxGeometry relative="1" as="geometry">
                        <Array as="points">
                            <mxPoint x="320" y="650"/>
                        </Array>
                    </mxGeometry>
                </mxCell>
                <mxCell id="37" style="edgeStyle=none;html=1;entryX=1;entryY=1;entryDx=0;entryDy=0;dashed=1;endArrow=classic;endFill=0;" edge="1" parent="1" source="5" target="25">
                    <mxGeometry relative="1" as="geometry">
                        <Array as="points">
                            <mxPoint x="570" y="650"/>
                        </Array>
                    </mxGeometry>
                </mxCell>
                <mxCell id="40" value="Caso entre com o Cadastro/Login()" style="edgeStyle=none;html=1;entryX=0;entryY=0;entryDx=0;entryDy=0;exitX=1.111;exitY=0.789;exitDx=0;exitDy=0;exitPerimeter=0;" edge="1" parent="1" source="5" target="17">
                    <mxGeometry relative="1" as="geometry"/>
                </mxCell>
                <mxCell id="5" value="" style="rounded=0;whiteSpace=wrap;html=1;" vertex="1" parent="1">
                    <mxGeometry x="530" y="270" width="45" height="380" as="geometry"/>
                </mxCell>
                <mxCell id="35" style="edgeStyle=none;html=1;entryX=1;entryY=1;entryDx=0;entryDy=0;dashed=1;endArrow=classic;endFill=0;" edge="1" parent="1" source="7" target="4">
                    <mxGeometry relative="1" as="geometry">
                        <Array as="points">
                            <mxPoint x="323" y="930"/>
                        </Array>
                    </mxGeometry>
                </mxCell>
                <mxCell id="36" style="edgeStyle=none;html=1;entryX=1;entryY=1;entryDx=0;entryDy=0;dashed=1;endArrow=classic;endFill=0;" edge="1" parent="1" source="7" target="5">
                    <mxGeometry relative="1" as="geometry">
                        <Array as="points">
                            <mxPoint x="575" y="930"/>
                        </Array>
                    </mxGeometry>
                </mxCell>
                <mxCell id="7" value="" style="rounded=0;whiteSpace=wrap;html=1;" vertex="1" parent="1">
                    <mxGeometry x="280" y="930" width="340" height="50" as="geometry"/>
                </mxCell>
                <mxCell id="49" style="edgeStyle=none;html=1;entryX=0;entryY=0;entryDx=0;entryDy=0;exitX=0.975;exitY=0.302;exitDx=0;exitDy=0;exitPerimeter=0;" edge="1" parent="1" source="8" target="9">
                    <mxGeometry relative="1" as="geometry"/>
                </mxCell>
                <mxCell id="84" value="&lt;span style=&quot;color: rgb(63, 63, 63); font-size: 8px;&quot;&gt;Ver Rank()&lt;/span&gt;" style="edgeLabel;html=1;align=center;verticalAlign=middle;resizable=0;points=[];" vertex="1" connectable="0" parent="49">
                    <mxGeometry x="-0.1289" y="-1" relative="1" as="geometry">
                        <mxPoint as="offset"/>
                    </mxGeometry>
                </mxCell>
                <mxCell id="8" value="" style="rounded=0;whiteSpace=wrap;html=1;" vertex="1" parent="1">
                    <mxGeometry x="801.25" y="210" width="45" height="200" as="geometry"/>
                </mxCell>
                <mxCell id="50" style="edgeStyle=none;html=1;entryX=1;entryY=1;entryDx=0;entryDy=0;exitX=-0.053;exitY=0.37;exitDx=0;exitDy=0;exitPerimeter=0;dashed=1;endArrow=classic;endFill=0;" edge="1" parent="1" source="9" target="8">
                    <mxGeometry relative="1" as="geometry"/>
                </mxCell>
                <mxCell id="65" style="edgeStyle=none;html=1;entryX=1;entryY=0.25;entryDx=0;entryDy=0;exitX=-0.018;exitY=0.921;exitDx=0;exitDy=0;exitPerimeter=0;dashed=1;endArrow=blockThin;endFill=0;" edge="1" parent="1" source="10" target="17">
                    <mxGeometry relative="1" as="geometry"/>
                </mxCell>
                <mxCell id="10" value="" style="rounded=0;whiteSpace=wrap;html=1;" vertex="1" parent="1">
                    <mxGeometry x="1555" y="270" width="45" height="380" as="geometry"/>
                </mxCell>
                <mxCell id="27" style="edgeStyle=none;html=1;dashed=1;endArrow=none;endFill=0;" edge="1" parent="1" source="12" target="4">
                    <mxGeometry relative="1" as="geometry"/>
                </mxCell>
                <mxCell id="12" value="Cadastro&lt;div&gt;de&lt;/div&gt;&lt;div&gt;Voluntario&lt;/div&gt;" style="rounded=0;whiteSpace=wrap;html=1;" vertex="1" parent="1">
                    <mxGeometry x="226.25" y="160" width="147.5" height="80" as="geometry"/>
                </mxCell>
                <mxCell id="43" style="edgeStyle=none;html=1;entryX=1;entryY=1;entryDx=0;entryDy=0;dashed=1;endArrow=classic;endFill=0;" edge="1" parent="1" target="17">
                    <mxGeometry relative="1" as="geometry">
                        <mxPoint x="850" y="929" as="sourcePoint"/>
                    </mxGeometry>
                </mxCell>
                <mxCell id="100" style="edgeStyle=none;html=1;entryX=1;entryY=1;entryDx=0;entryDy=0;dashed=1;endArrow=blockThin;endFill=0;exitX=0.999;exitY=0.605;exitDx=0;exitDy=0;exitPerimeter=0;" edge="1" parent="1" source="13" target="90">
                    <mxGeometry relative="1" as="geometry">
                        <Array as="points">
                            <mxPoint x="1160" y="960"/>
                            <mxPoint x="1160" y="810"/>
                            <mxPoint x="1160" y="680"/>
                            <mxPoint x="1160" y="430"/>
                            <mxPoint x="1260" y="430"/>
                        </Array>
                    </mxGeometry>
                </mxCell>
                <mxCell id="13" value="" style="rounded=0;whiteSpace=wrap;html=1;" vertex="1" parent="1">
                    <mxGeometry x="740" y="930" width="340" height="50" as="geometry"/>
                </mxCell>
                <mxCell id="21" style="edgeStyle=none;html=1;dashed=1;endArrow=none;endFill=0;" edge="1" parent="1" source="14" target="5">
                    <mxGeometry relative="1" as="geometry"/>
                </mxCell>
                <mxCell id="14" value="Login&lt;br&gt;&lt;div&gt;do&lt;/div&gt;&lt;div&gt;Voluntario&lt;/div&gt;" style="rounded=0;whiteSpace=wrap;html=1;" vertex="1" parent="1">
                    <mxGeometry x="478.75" y="160" width="147.5" height="80" as="geometry"/>
                </mxCell>
                <mxCell id="19" style="edgeStyle=none;html=1;dashed=1;endArrow=none;endFill=0;" edge="1" parent="1" source="15" target="8">
                    <mxGeometry relative="1" as="geometry"/>
                </mxCell>
                <mxCell id="15" value="Tela&lt;div&gt;Inicial sem&amp;nbsp;&lt;/div&gt;&lt;div&gt;ID&lt;/div&gt;" style="rounded=0;whiteSpace=wrap;html=1;" vertex="1" parent="1">
                    <mxGeometry x="750" y="70" width="147.5" height="80" as="geometry"/>
                </mxCell>
                <mxCell id="20" style="edgeStyle=none;html=1;dashed=1;endArrow=none;endFill=0;" edge="1" parent="1" source="16" target="17">
                    <mxGeometry relative="1" as="geometry"/>
                </mxCell>
                <mxCell id="16" value="Tela&lt;div&gt;Inicial com&amp;nbsp;&lt;/div&gt;&lt;div&gt;ID&lt;/div&gt;" style="rounded=0;whiteSpace=wrap;html=1;" vertex="1" parent="1">
                    <mxGeometry x="753.75" y="440" width="147.5" height="80" as="geometry"/>
                </mxCell>
                <mxCell id="41" style="edgeStyle=none;html=1;exitX=0.018;exitY=0.398;exitDx=0;exitDy=0;exitPerimeter=0;dashed=1;endArrow=classic;endFill=0;entryX=1;entryY=1;entryDx=0;entryDy=0;" edge="1" parent="1" source="17" target="5">
                    <mxGeometry relative="1" as="geometry">
                        <mxPoint x="580" y="650" as="targetPoint"/>
                    </mxGeometry>
                </mxCell>
                <mxCell id="17" value="" style="rounded=0;whiteSpace=wrap;html=1;" vertex="1" parent="1">
                    <mxGeometry x="805" y="570" width="45" height="200" as="geometry"/>
                </mxCell>
                <mxCell id="22" style="edgeStyle=none;html=1;entryX=0.5;entryY=1;entryDx=0;entryDy=0;dashed=1;endArrow=none;endFill=0;" edge="1" parent="1" source="18" target="13">
                    <mxGeometry relative="1" as="geometry">
                        <Array as="points">
                            <mxPoint x="910" y="1070"/>
                        </Array>
                    </mxGeometry>
                </mxCell>
                <mxCell id="23" style="edgeStyle=none;html=1;entryX=0.518;entryY=1;entryDx=0;entryDy=0;endArrow=none;endFill=0;dashed=1;entryPerimeter=0;" edge="1" parent="1" source="18" target="7">
                    <mxGeometry relative="1" as="geometry">
                        <Array as="points">
                            <mxPoint x="456" y="1070"/>
                        </Array>
                    </mxGeometry>
                </mxCell>
                <mxCell id="48" style="edgeStyle=none;html=1;entryX=0.5;entryY=1;entryDx=0;entryDy=0;dashed=1;endArrow=none;endFill=0;" edge="1" parent="1" source="18" target="47">
                    <mxGeometry relative="1" as="geometry">
                        <Array as="points">
                            <mxPoint x="1430" y="1165"/>
                        </Array>
                    </mxGeometry>
                </mxCell>
                <mxCell id="18" value="&lt;font style=&quot;font-size: 23px;&quot;&gt;Banco de Dados&lt;/font&gt;" style="rounded=0;whiteSpace=wrap;html=1;" vertex="1" parent="1">
                    <mxGeometry x="373.75" y="1070" width="560" height="190" as="geometry"/>
                </mxCell>
                <mxCell id="28" value="Inclui Dados para&amp;nbsp; Cadastro()" style="edgeStyle=none;html=1;entryX=0;entryY=0;entryDx=0;entryDy=0;" edge="1" parent="1" source="25" target="4">
                    <mxGeometry x="0.0115" y="-10" relative="1" as="geometry">
                        <Array as="points">
                            <mxPoint x="60" y="270"/>
                        </Array>
                        <mxPoint as="offset"/>
                    </mxGeometry>
                </mxCell>
                <mxCell id="31" value="Faz Login Do Usuario()" style="edgeStyle=none;html=1;entryX=0;entryY=0;entryDx=0;entryDy=0;" edge="1" parent="1" source="25" target="5">
                    <mxGeometry x="0.5918" y="-10" relative="1" as="geometry">
                        <Array as="points">
                            <mxPoint x="40" y="270"/>
                        </Array>
                        <mxPoint x="1" as="offset"/>
                    </mxGeometry>
                </mxCell>
                <mxCell id="38" value="Caso o usuario entre sem fazer cadastro/login()" style="edgeStyle=none;html=1;entryX=0;entryY=0.5;entryDx=0;entryDy=0;" edge="1" parent="1" source="25" target="8">
                    <mxGeometry relative="1" as="geometry">
                        <Array as="points">
                            <mxPoint y="460"/>
                            <mxPoint y="130"/>
                            <mxPoint x="380" y="130"/>
                            <mxPoint x="700" y="130"/>
                            <mxPoint x="700" y="310"/>
                        </Array>
                    </mxGeometry>
                </mxCell>
                <mxCell id="25" value="" style="rounded=0;whiteSpace=wrap;html=1;" vertex="1" parent="1">
                    <mxGeometry x="32.5" y="270" width="45" height="380" as="geometry"/>
                </mxCell>
                <mxCell id="30" value="Insere Dados No Banco de Dados()" style="edgeStyle=none;html=1;entryX=0;entryY=0;entryDx=0;entryDy=0;" edge="1" parent="1" source="4" target="7">
                    <mxGeometry relative="1" as="geometry">
                        <Array as="points">
                            <mxPoint x="280" y="650"/>
                        </Array>
                    </mxGeometry>
                </mxCell>
                <mxCell id="33" value="Verifica se os Dados do Voluntario&lt;div&gt;&amp;nbsp;Estão Registrados()&lt;/div&gt;" style="edgeStyle=none;html=1;" edge="1" parent="1" source="5">
                    <mxGeometry relative="1" as="geometry">
                        <mxPoint x="530" y="930" as="targetPoint"/>
                        <Array as="points">
                            <mxPoint x="530" y="650"/>
                        </Array>
                    </mxGeometry>
                </mxCell>
                <mxCell id="39" style="edgeStyle=none;html=1;exitX=0.034;exitY=0.597;exitDx=0;exitDy=0;exitPerimeter=0;dashed=1;endArrow=classic;endFill=0;" edge="1" parent="1" source="8">
                    <mxGeometry relative="1" as="geometry">
                        <mxPoint x="29" y="440" as="targetPoint"/>
                        <Array as="points">
                            <mxPoint x="680" y="330"/>
                            <mxPoint x="680" y="140"/>
                            <mxPoint x="600" y="140"/>
                            <mxPoint x="310" y="140"/>
                            <mxPoint x="160" y="140"/>
                            <mxPoint x="10" y="140"/>
                            <mxPoint x="10" y="260"/>
                            <mxPoint x="10" y="440"/>
                        </Array>
                    </mxGeometry>
                </mxCell>
                <mxCell id="42" value="Verifica a variavel&amp;nbsp;&lt;div&gt;ID e Nome()&lt;/div&gt;" style="edgeStyle=none;html=1;entryX=0.192;entryY=0.048;entryDx=0;entryDy=0;entryPerimeter=0;exitX=0;exitY=1;exitDx=0;exitDy=0;" edge="1" parent="1" source="17" target="13">
                    <mxGeometry relative="1" as="geometry"/>
                </mxCell>
                <mxCell id="57" style="edgeStyle=none;html=1;entryX=0.5;entryY=0;entryDx=0;entryDy=0;dashed=1;endArrow=none;endFill=0;" edge="1" parent="1" source="44" target="9">
                    <mxGeometry relative="1" as="geometry"/>
                </mxCell>
                <mxCell id="44" value="Rank de&lt;div&gt;Voluntarios&lt;/div&gt;" style="rounded=0;whiteSpace=wrap;html=1;" vertex="1" parent="1">
                    <mxGeometry x="1008.75" y="160" width="147.5" height="80" as="geometry"/>
                </mxCell>
                <mxCell id="58" style="edgeStyle=none;html=1;dashed=1;endArrow=none;endFill=0;" edge="1" parent="1" source="45" target="11">
                    <mxGeometry relative="1" as="geometry"/>
                </mxCell>
                <mxCell id="45" value="Lista d&lt;span style=&quot;font-family: monospace; font-size: 0px; text-align: start; text-wrap-mode: nowrap;&quot;&gt;%3CmxGraphModel%3E%3Croot%3E%3CmxCell%20id%3D%220%22%2F%3E%3CmxCell%20id%3D%221%22%20parent%3D%220%22%2F%3E%3CmxCell%20id%3D%222%22%20value%3D%22Rank%20de%26lt%3Bdiv%26gt%3BVoluntarios%26lt%3B%2Fdiv%26gt%3B%22%20style%3D%22rounded%3D0%3BwhiteSpace%3Dwrap%3Bhtml%3D1%3B%22%20vertex%3D%221%22%20parent%3D%221%22%3E%3CmxGeometry%20x%3D%221008.75%22%20y%3D%22160%22%20width%3D%22147.5%22%20height%3D%2280%22%20as%3D%22geometry%22%2F%3E%3C%2FmxCell%3E%3C%2Froot%3E%3C%2FmxGraphModel%3E&lt;/span&gt;e Projetos" style="rounded=0;whiteSpace=wrap;html=1;" vertex="1" parent="1">
                    <mxGeometry x="1313.75" y="160" width="147.5" height="80" as="geometry"/>
                </mxCell>
                <mxCell id="59" style="edgeStyle=none;html=1;entryX=0.5;entryY=0;entryDx=0;entryDy=0;dashed=1;endArrow=none;endFill=0;" edge="1" parent="1" source="46" target="10">
                    <mxGeometry relative="1" as="geometry"/>
                </mxCell>
                <mxCell id="46" value="Dashboard" style="rounded=0;whiteSpace=wrap;html=1;" vertex="1" parent="1">
                    <mxGeometry x="1503.75" y="160" width="147.5" height="80" as="geometry"/>
                </mxCell>
                <mxCell id="78" style="edgeStyle=none;html=1;entryX=1;entryY=1;entryDx=0;entryDy=0;exitX=0.448;exitY=-0.013;exitDx=0;exitDy=0;exitPerimeter=0;dashed=1;endArrow=blockThin;endFill=0;" edge="1" parent="1" source="47" target="11">
                    <mxGeometry relative="1" as="geometry"/>
                </mxCell>
                <mxCell id="80" style="edgeStyle=none;html=1;entryX=1;entryY=1;entryDx=0;entryDy=0;exitX=1;exitY=0;exitDx=0;exitDy=0;dashed=1;endArrow=blockThin;endFill=0;" edge="1" parent="1" source="47" target="10">
                    <mxGeometry relative="1" as="geometry"/>
                </mxCell>
                <mxCell id="102" style="edgeStyle=none;html=1;entryX=0.941;entryY=1.003;entryDx=0;entryDy=0;exitX=0;exitY=0;exitDx=0;exitDy=0;entryPerimeter=0;dashed=1;endArrow=blockThin;endFill=0;" edge="1" parent="1" source="47" target="91">
                    <mxGeometry relative="1" as="geometry">
                        <Array as="points"/>
                    </mxGeometry>
                </mxCell>
                <mxCell id="47" value="" style="rounded=0;whiteSpace=wrap;html=1;" vertex="1" parent="1">
                    <mxGeometry x="1260" y="930" width="340" height="50" as="geometry"/>
                </mxCell>
                <mxCell id="51" value="&lt;font style=&quot;font-size: 8px;&quot;&gt;Ver Rank()&lt;/font&gt;" style="edgeStyle=none;html=1;entryX=-0.021;entryY=0.788;entryDx=0;entryDy=0;entryPerimeter=0;exitX=1;exitY=0;exitDx=0;exitDy=0;" edge="1" parent="1" source="17" target="9">
                    <mxGeometry relative="1" as="geometry"/>
                </mxCell>
                <mxCell id="52" style="edgeStyle=none;html=1;entryX=1.031;entryY=0.395;entryDx=0;entryDy=0;entryPerimeter=0;exitX=0;exitY=1;exitDx=0;exitDy=0;dashed=1;endArrow=blockThin;endFill=0;" edge="1" parent="1" source="9" target="17">
                    <mxGeometry relative="1" as="geometry"/>
                </mxCell>
                <mxCell id="54" style="edgeStyle=none;html=1;entryX=0.942;entryY=0.035;entryDx=0;entryDy=0;entryPerimeter=0;exitX=0;exitY=1;exitDx=0;exitDy=0;" edge="1" parent="1" source="9" target="13">
                    <mxGeometry relative="1" as="geometry"/>
                </mxCell>
                <mxCell id="76" value="&lt;font style=&quot;font-size: 8px;&quot;&gt;Verificar&lt;/font&gt;&lt;div&gt;&lt;font style=&quot;font-size: 8px;&quot;&gt;Voluntarios&lt;/font&gt;&lt;/div&gt;&lt;div&gt;&lt;font style=&quot;font-size: 8px;&quot;&gt;no BD()&lt;/font&gt;&lt;/div&gt;" style="edgeLabel;html=1;align=center;verticalAlign=middle;resizable=0;points=[];" vertex="1" connectable="0" parent="54">
                    <mxGeometry x="-0.1587" relative="1" as="geometry">
                        <mxPoint x="-10" y="1" as="offset"/>
                    </mxGeometry>
                </mxCell>
                <mxCell id="60" style="edgeStyle=none;html=1;entryX=0;entryY=0.842;entryDx=0;entryDy=0;entryPerimeter=0;exitX=1;exitY=0.1;exitDx=0;exitDy=0;exitPerimeter=0;" edge="1" parent="1" source="17" target="11">
                    <mxGeometry relative="1" as="geometry">
                        <Array as="points"/>
                    </mxGeometry>
                </mxCell>
                <mxCell id="74" value="&lt;font style=&quot;font-size: 8px;&quot;&gt;Ver ListaProjetos()&lt;/font&gt;" style="edgeLabel;html=1;align=center;verticalAlign=middle;resizable=0;points=[];" vertex="1" connectable="0" parent="60">
                    <mxGeometry x="-0.5259" y="-1" relative="1" as="geometry">
                        <mxPoint x="18" y="-1" as="offset"/>
                    </mxGeometry>
                </mxCell>
                <mxCell id="61" style="edgeStyle=none;html=1;entryX=1;entryY=0.15;entryDx=0;entryDy=0;entryPerimeter=0;exitX=0;exitY=0.868;exitDx=0;exitDy=0;exitPerimeter=0;dashed=1;endArrow=blockThin;endFill=0;" edge="1" parent="1" source="11" target="17">
                    <mxGeometry relative="1" as="geometry"/>
                </mxCell>
                <mxCell id="63" style="edgeStyle=none;html=1;entryX=0.991;entryY=0.45;entryDx=0;entryDy=0;entryPerimeter=0;exitX=0;exitY=0.079;exitDx=0;exitDy=0;exitPerimeter=0;dashed=1;endArrow=blockThin;endFill=0;" edge="1" parent="1" source="11" target="8">
                    <mxGeometry relative="1" as="geometry"/>
                </mxCell>
                <mxCell id="64" style="edgeStyle=none;html=1;entryX=-0.023;entryY=0.894;entryDx=0;entryDy=0;entryPerimeter=0;exitX=1.03;exitY=0.199;exitDx=0;exitDy=0;exitPerimeter=0;" edge="1" parent="1" source="17" target="10">
                    <mxGeometry relative="1" as="geometry"/>
                </mxCell>
                <mxCell id="75" value="&lt;font style=&quot;font-size: 8px;&quot;&gt;Ver Dashboard()&amp;nbsp;&lt;/font&gt;" style="edgeLabel;html=1;align=center;verticalAlign=middle;resizable=0;points=[];" vertex="1" connectable="0" parent="64">
                    <mxGeometry x="-0.7116" relative="1" as="geometry">
                        <mxPoint x="25" as="offset"/>
                    </mxGeometry>
                </mxCell>
                <mxCell id="4" value="" style="rounded=0;whiteSpace=wrap;html=1;" vertex="1" parent="1">
                    <mxGeometry x="277.5" y="270" width="45" height="380" as="geometry"/>
                </mxCell>
                <mxCell id="66" style="edgeStyle=none;html=1;entryX=0.037;entryY=0.101;entryDx=0;entryDy=0;entryPerimeter=0;" edge="1" parent="1" source="8" target="10">
                    <mxGeometry relative="1" as="geometry"/>
                </mxCell>
                <mxCell id="86" value="&lt;span style=&quot;color: rgb(63, 63, 63); font-size: 8px;&quot;&gt;Ver Dashboard()&amp;nbsp;&lt;/span&gt;" style="edgeLabel;html=1;align=center;verticalAlign=middle;resizable=0;points=[];" vertex="1" connectable="0" parent="66">
                    <mxGeometry x="-0.7357" y="-1" relative="1" as="geometry">
                        <mxPoint as="offset"/>
                    </mxGeometry>
                </mxCell>
                <mxCell id="67" style="edgeStyle=none;html=1;exitX=-0.012;exitY=0.131;exitDx=0;exitDy=0;exitPerimeter=0;dashed=1;endArrow=blockThin;endFill=0;entryX=1.007;entryY=0.551;entryDx=0;entryDy=0;entryPerimeter=0;" edge="1" parent="1" source="10" target="8">
                    <mxGeometry relative="1" as="geometry">
                        <mxPoint x="850" y="320" as="targetPoint"/>
                    </mxGeometry>
                </mxCell>
                <mxCell id="11" value="" style="rounded=0;whiteSpace=wrap;html=1;" vertex="1" parent="1">
                    <mxGeometry x="1365" y="270" width="45" height="380" as="geometry"/>
                </mxCell>
                <mxCell id="68" style="edgeStyle=none;html=1;entryX=1.052;entryY=0.049;entryDx=0;entryDy=0;entryPerimeter=0;dashed=1;endArrow=blockThin;endFill=0;" edge="1" parent="1" target="17">
                    <mxGeometry relative="1" as="geometry">
                        <mxPoint x="1060" y="580" as="sourcePoint"/>
                    </mxGeometry>
                </mxCell>
                <mxCell id="72" style="edgeStyle=none;html=1;entryX=0.998;entryY=0.345;entryDx=0;entryDy=0;entryPerimeter=0;exitX=0;exitY=0.024;exitDx=0;exitDy=0;exitPerimeter=0;dashed=1;endArrow=blockThin;endFill=0;" edge="1" parent="1" source="9" target="8">
                    <mxGeometry relative="1" as="geometry"/>
                </mxCell>
                <mxCell id="56" style="edgeStyle=none;html=1;exitX=1;exitY=0;exitDx=0;exitDy=0;dashed=1;endArrow=classic;endFill=0;" edge="1" parent="1" source="13">
                    <mxGeometry relative="1" as="geometry">
                        <mxPoint x="1080" y="650" as="targetPoint"/>
                    </mxGeometry>
                </mxCell>
                <mxCell id="77" style="edgeStyle=none;html=1;entryX=0.309;entryY=0;entryDx=0;entryDy=0;entryPerimeter=0;exitX=0;exitY=1;exitDx=0;exitDy=0;" edge="1" parent="1" source="11" target="47">
                    <mxGeometry relative="1" as="geometry"/>
                </mxCell>
                <mxCell id="82" value="&lt;font style=&quot;font-size: 8px;&quot;&gt;Ver&lt;/font&gt;&lt;div&gt;&lt;font style=&quot;font-size: 8px;&quot;&gt;Projetos&lt;/font&gt;&lt;/div&gt;&lt;div&gt;&lt;font style=&quot;font-size: 8px;&quot;&gt;Salvos&lt;/font&gt;&lt;/div&gt;&lt;div&gt;&lt;font style=&quot;font-size: 8px;&quot;&gt;no&lt;/font&gt;&lt;/div&gt;&lt;div&gt;&lt;font style=&quot;font-size: 8px;&quot;&gt;BD()&lt;/font&gt;&lt;/div&gt;" style="edgeLabel;html=1;align=center;verticalAlign=middle;resizable=0;points=[];" vertex="1" connectable="0" parent="77">
                    <mxGeometry x="-0.1534" y="1" relative="1" as="geometry">
                        <mxPoint x="-1" y="1" as="offset"/>
                    </mxGeometry>
                </mxCell>
                <mxCell id="79" value="&lt;font style=&quot;font-size: 8px;&quot;&gt;Ver&lt;/font&gt;&lt;div&gt;&lt;font style=&quot;font-size: 8px;&quot;&gt;Dados&lt;/font&gt;&lt;/div&gt;&lt;div&gt;&lt;font style=&quot;font-size: 8px;&quot;&gt;Salvos&lt;/font&gt;&lt;/div&gt;&lt;div&gt;&lt;font style=&quot;font-size: 8px;&quot;&gt;no&lt;/font&gt;&lt;/div&gt;&lt;div&gt;&lt;font style=&quot;font-size: 8px;&quot;&gt;BD()&lt;/font&gt;&lt;/div&gt;" style="edgeStyle=none;html=1;entryX=0.868;entryY=0;entryDx=0;entryDy=0;entryPerimeter=0;exitX=0;exitY=1;exitDx=0;exitDy=0;" edge="1" parent="1" source="10" target="47">
                    <mxGeometry x="-0.1429" relative="1" as="geometry">
                        <mxPoint as="offset"/>
                    </mxGeometry>
                </mxCell>
                <mxCell id="83" style="edgeStyle=none;html=1;" edge="1" parent="1">
                    <mxGeometry relative="1" as="geometry">
                        <mxPoint x="850" y="290" as="sourcePoint"/>
                        <mxPoint x="1363" y="290" as="targetPoint"/>
                    </mxGeometry>
                </mxCell>
                <mxCell id="85" value="&lt;span style=&quot;color: rgb(63, 63, 63); font-size: 8px;&quot;&gt;Ver ListaProjetos()&lt;/span&gt;" style="edgeLabel;html=1;align=center;verticalAlign=middle;resizable=0;points=[];" vertex="1" connectable="0" parent="83">
                    <mxGeometry x="-0.6504" relative="1" as="geometry">
                        <mxPoint as="offset"/>
                    </mxGeometry>
                </mxCell>
                <mxCell id="96" value="&lt;font style=&quot;font-size: 8px;&quot;&gt;Pesquisar com&lt;/font&gt;&lt;div&gt;&lt;font style=&quot;font-size: 8px;&quot;&gt;Palavras&lt;/font&gt;&lt;/div&gt;&lt;div&gt;&lt;font style=&quot;font-size: 8px;&quot;&gt;Chaves()&lt;/font&gt;&lt;/div&gt;" style="edgeStyle=none;html=1;entryX=0;entryY=0;entryDx=0;entryDy=0;exitX=1.005;exitY=0.527;exitDx=0;exitDy=0;exitPerimeter=0;" edge="1" parent="1" source="9" target="91">
                    <mxGeometry x="-0.0239" y="10" relative="1" as="geometry">
                        <mxPoint as="offset"/>
                    </mxGeometry>
                </mxCell>
                <mxCell id="9" value="" style="rounded=0;whiteSpace=wrap;html=1;" vertex="1" parent="1">
                    <mxGeometry x="1060" y="270" width="45" height="380" as="geometry"/>
                </mxCell>
                <mxCell id="93" style="edgeStyle=none;html=1;dashed=1;endArrow=none;endFill=0;" edge="1" parent="1" source="87" target="90">
                    <mxGeometry relative="1" as="geometry"/>
                </mxCell>
                <mxCell id="87" value="Pesquisa&lt;div&gt;Basica&lt;/div&gt;" style="rounded=0;whiteSpace=wrap;html=1;" vertex="1" parent="1">
                    <mxGeometry x="1166.25" y="30" width="147.5" height="80" as="geometry"/>
                </mxCell>
                <mxCell id="92" style="edgeStyle=none;html=1;dashed=1;endArrow=none;endFill=0;entryX=0.27;entryY=0.981;entryDx=0;entryDy=0;entryPerimeter=0;exitX=0.427;exitY=-0.03;exitDx=0;exitDy=0;exitPerimeter=0;" edge="1" parent="1" source="89" target="91">
                    <mxGeometry relative="1" as="geometry"/>
                </mxCell>
                <mxCell id="99" value="&lt;font style=&quot;font-size: 8px;&quot;&gt;Pegar&lt;/font&gt;&lt;div&gt;&lt;font style=&quot;font-size: 8px;&quot;&gt;Dados&lt;/font&gt;&lt;/div&gt;&lt;div&gt;&lt;font style=&quot;font-size: 8px;&quot;&gt;do&lt;/font&gt;&lt;/div&gt;&lt;div&gt;&lt;font style=&quot;font-size: 8px;&quot;&gt;Voluntario&lt;/font&gt;&lt;/div&gt;&lt;div&gt;&lt;font style=&quot;font-size: 8px;&quot;&gt;Pesquisado&lt;/font&gt;&lt;/div&gt;&lt;div&gt;&lt;font style=&quot;font-size: 8px;&quot;&gt;no&lt;/font&gt;&lt;/div&gt;&lt;div&gt;&lt;font style=&quot;font-size: 8px;&quot;&gt;BD()&lt;/font&gt;&lt;/div&gt;" style="edgeStyle=none;html=1;exitX=0;exitY=1;exitDx=0;exitDy=0;" edge="1" parent="1" source="90">
                    <mxGeometry x="0.1431" relative="1" as="geometry">
                        <mxPoint x="1080" y="932.7586206896551" as="targetPoint"/>
                        <Array as="points">
                            <mxPoint x="1130" y="410"/>
                            <mxPoint x="1130" y="670"/>
                            <mxPoint x="1130" y="933"/>
                        </Array>
                        <mxPoint as="offset"/>
                    </mxGeometry>
                </mxCell>
                <mxCell id="90" value="" style="rounded=0;whiteSpace=wrap;html=1;" vertex="1" parent="1">
                    <mxGeometry x="1217.5" y="260" width="45" height="150" as="geometry"/>
                </mxCell>
                <mxCell id="101" value="&lt;font style=&quot;font-size: 8px;&quot;&gt;Pegar&lt;/font&gt;&lt;div&gt;&lt;font style=&quot;font-size: 8px;&quot;&gt;Todos&lt;/font&gt;&lt;/div&gt;&lt;div&gt;&lt;font style=&quot;font-size: 8px;&quot;&gt;Os&lt;/font&gt;&lt;/div&gt;&lt;div&gt;&lt;font style=&quot;font-size: 8px;&quot;&gt;Voluntarios&lt;/font&gt;&lt;/div&gt;&lt;div&gt;&lt;font style=&quot;font-size: 8px;&quot;&gt;Com&lt;/font&gt;&lt;/div&gt;&lt;div&gt;&lt;font style=&quot;font-size: 8px;&quot;&gt;a&lt;/font&gt;&lt;/div&gt;&lt;div&gt;&lt;font style=&quot;font-size: 8px;&quot;&gt;Info&lt;/font&gt;&lt;/div&gt;&lt;div&gt;&lt;font style=&quot;font-size: 8px;&quot;&gt;Chave&lt;/font&gt;&lt;/div&gt;&lt;div&gt;&lt;font style=&quot;font-size: 8px;&quot;&gt;no&lt;/font&gt;&lt;/div&gt;&lt;div&gt;&lt;font style=&quot;font-size: 8px;&quot;&gt;BD()&lt;/font&gt;&lt;/div&gt;" style="edgeStyle=none;html=1;entryX=0;entryY=0.75;entryDx=0;entryDy=0;" edge="1" parent="1" source="91" target="47">
                    <mxGeometry x="0.5669" y="-20" relative="1" as="geometry">
                        <Array as="points">
                            <mxPoint x="1240" y="970"/>
                        </Array>
                        <mxPoint as="offset"/>
                    </mxGeometry>
                </mxCell>
                <mxCell id="91" value="" style="rounded=0;whiteSpace=wrap;html=1;" vertex="1" parent="1">
                    <mxGeometry x="1217.5" y="470" width="45" height="150" as="geometry"/>
                </mxCell>
                <mxCell id="94" value="&lt;font style=&quot;font-size: 8px;&quot;&gt;Pesquisar com&lt;/font&gt;&lt;div&gt;&lt;font style=&quot;font-size: 8px;&quot;&gt;Nome&lt;/font&gt;&lt;/div&gt;&lt;div&gt;&lt;font style=&quot;font-size: 8px;&quot;&gt;Completo()&lt;/font&gt;&lt;/div&gt;" style="edgeStyle=none;html=1;entryX=-0.001;entryY=0.671;entryDx=0;entryDy=0;entryPerimeter=0;exitX=0.998;exitY=0.236;exitDx=0;exitDy=0;exitPerimeter=0;" edge="1" parent="1" source="9" target="90">
                    <mxGeometry relative="1" as="geometry">
                        <mxPoint x="1110" y="360" as="sourcePoint"/>
                    </mxGeometry>
                </mxCell>
                <mxCell id="95" style="edgeStyle=none;html=1;entryX=1.011;entryY=0.342;entryDx=0;entryDy=0;entryPerimeter=0;exitX=0.004;exitY=0.933;exitDx=0;exitDy=0;exitPerimeter=0;dashed=1;endArrow=blockThin;endFill=0;" edge="1" parent="1" source="90" target="9">
                    <mxGeometry relative="1" as="geometry"/>
                </mxCell>
                <mxCell id="97" style="edgeStyle=none;html=1;entryX=0.999;entryY=0.579;entryDx=0;entryDy=0;entryPerimeter=0;exitX=-0.044;exitY=0.134;exitDx=0;exitDy=0;exitPerimeter=0;dashed=1;endArrow=blockThin;endFill=0;" edge="1" parent="1" source="91" target="9">
                    <mxGeometry relative="1" as="geometry"/>
                </mxCell>
                <mxCell id="89" value="Pesquisa&lt;div&gt;Avançada&lt;/div&gt;" style="rounded=0;whiteSpace=wrap;html=1;" vertex="1" parent="1">
                    <mxGeometry x="1166.25" y="750" width="147.5" height="80" as="geometry"/>
                </mxCell>
            </root>
        </mxGraphModel>
    </diagram>
</mxfile>